<svg width="35" height="35" viewBox="0 0 35 35" fill="none" xmlns="http://www.w3.org/2000/svg">
<path d="M32.2603 3.56027H29.8003V1.10027C29.8003 0.882796 29.7139 0.674226 29.5601 0.520446C29.4063 0.366666 29.1978 0.280273 28.9803 0.280273C28.7628 0.280273 28.5542 0.366666 28.4004 0.520446C28.2467 0.674226 28.1603 0.882796 28.1603 1.10027V3.56027H18.3203V1.10027C18.3203 0.882796 18.2339 0.674226 18.0801 0.520446C17.9263 0.366666 17.7178 0.280273 17.5003 0.280273C17.2828 0.280273 17.0742 0.366666 16.9204 0.520446C16.7667 0.674226 16.6803 0.882796 16.6803 1.10027V3.56027H6.84027V1.10027C6.84027 0.882796 6.75388 0.674226 6.6001 0.520446C6.44632 0.366666 6.23775 0.280273 6.02027 0.280273C5.8028 0.280273 5.59423 0.366666 5.44045 0.520446C5.28667 0.674226 5.20027 0.882796 5.20027 1.10027V3.56027H2.74027C2.08784 3.56027 1.46213 3.81945 1.00079 4.28079C0.539451 4.74213 0.280273 5.36784 0.280273 6.02027V32.2603C0.280273 32.9127 0.539451 33.5384 1.00079 33.9998C1.46213 34.4611 2.08784 34.7203 2.74027 34.7203H32.2603C32.9127 34.7203 33.5384 34.4611 33.9998 33.9998C34.4611 33.5384 34.7203 32.9127 34.7203 32.2603V6.02027C34.7203 5.36784 34.4611 4.74213 33.9998 4.28079C33.5384 3.81945 32.9127 3.56027 32.2603 3.56027ZM2.74027 5.20027H5.20027V6.02027C5.20027 6.23775 5.28667 6.44632 5.44045 6.6001C5.59423 6.75388 5.8028 6.84027 6.02027 6.84027C6.23775 6.84027 6.44632 6.75388 6.6001 6.6001C6.75388 6.44632 6.84027 6.23775 6.84027 6.02027V5.20027H16.6803V6.02027C16.6803 6.23775 16.7667 6.44632 16.9204 6.6001C17.0742 6.75388 17.2828 6.84027 17.5003 6.84027C17.7178 6.84027 17.9263 6.75388 18.0801 6.6001C18.2339 6.44632 18.3203 6.23775 18.3203 6.02027V5.20027H28.1603V6.02027C28.1603 6.23775 28.2467 6.44632 28.4004 6.6001C28.5542 6.75388 28.7628 6.84027 28.9803 6.84027C29.1978 6.84027 29.4063 6.75388 29.5601 6.6001C29.7139 6.44632 29.8003 6.23775 29.8003 6.02027V5.20027H32.2603C32.4778 5.20027 32.6863 5.28667 32.8401 5.44045C32.9939 5.59423 33.0803 5.8028 33.0803 6.02027V10.1203H1.92027V6.02027C1.92027 5.8028 2.00667 5.59423 2.16045 5.44045C2.31423 5.28667 2.5228 5.20027 2.74027 5.20027ZM32.2603 33.0803H2.74027C2.5228 33.0803 2.31423 32.9939 2.16045 32.8401C2.00667 32.6863 1.92027 32.4778 1.92027 32.2603V11.7603H33.0803V32.2603C33.0803 32.4778 32.9939 32.6863 32.8401 32.8401C32.6863 32.9939 32.4778 33.0803 32.2603 33.0803ZM24.8803 22.4203C24.8803 22.6378 24.7939 22.8463 24.6401 23.0001C24.4863 23.1539 24.2778 23.2403 24.0603 23.2403H18.3203V28.9803C18.3203 29.1978 18.2339 29.4063 18.0801 29.5601C17.9263 29.7139 17.7178 29.8003 17.5003 29.8003C17.2828 29.8003 17.0742 29.7139 16.9204 29.5601C16.7667 29.4063 16.6803 29.1978 16.6803 28.9803V23.2403H10.9403C10.7228 23.2403 10.5142 23.1539 10.3604 23.0001C10.2067 22.8463 10.1203 22.6378 10.1203 22.4203C10.1203 22.2028 10.2067 21.9942 10.3604 21.8404C10.5142 21.6867 10.7228 21.6003 10.9403 21.6003H16.6803V15.8603C16.6803 15.6428 16.7667 15.4342 16.9204 15.2804C17.0742 15.1267 17.2828 15.0403 17.5003 15.0403C17.7178 15.0403 17.9263 15.1267 18.0801 15.2804C18.2339 15.4342 18.3203 15.6428 18.3203 15.8603V21.6003H24.0603C24.2778 21.6003 24.4863 21.6867 24.6401 21.8404C24.7939 21.9942 24.8803 22.2028 24.8803 22.4203Z" fill="#375889"/>
<path d="M24.8801 22.38C24.8801 22.5975 24.7937 22.806 24.6399 22.9598C24.4862 23.1136 24.2776 23.2 24.0601 23.2H18.3201V28.94C18.3201 29.1575 18.2337 29.366 18.0799 29.5198C17.9262 29.6736 17.7176 29.76 17.5001 29.76C17.2826 29.76 17.0741 29.6736 16.9203 29.5198C16.7665 29.366 16.6801 29.1575 16.6801 28.94V23.2H10.9401C10.7226 23.2 10.5141 23.1136 10.3603 22.9598C10.2065 22.806 10.1201 22.5975 10.1201 22.38C10.1201 22.1625 10.2065 21.954 10.3603 21.8002C10.5141 21.6464 10.7226 21.56 10.9401 21.56H16.6801V15.82C16.6801 15.6025 16.7665 15.394 16.9203 15.2402C17.0741 15.0864 17.2826 15 17.5001 15C17.7176 15 17.9262 15.0864 18.0799 15.2402C18.2337 15.394 18.3201 15.6025 18.3201 15.82V21.56H24.0601C24.2776 21.56 24.4862 21.6464 24.6399 21.8002C24.7937 21.954 24.8801 22.1625 24.8801 22.38Z" fill="#D6002A"/>
</svg>
