<svg width="26" height="26" viewBox="0 0 26 26" fill="none" xmlns="http://www.w3.org/2000/svg">
<path d="M22.3601 4.16008H20.8001V2.60008C20.8001 2.46217 20.7453 2.3299 20.6478 2.23238C20.5503 2.13486 20.418 2.08008 20.2801 2.08008C20.1422 2.08008 20.0099 2.13486 19.9124 2.23238C19.8149 2.3299 19.7601 2.46217 19.7601 2.60008V4.16008H13.5201V2.60008C13.5201 2.46217 13.4653 2.3299 13.3678 2.23238C13.2703 2.13486 13.138 2.08008 13.0001 2.08008C12.8622 2.08008 12.7299 2.13486 12.6324 2.23238C12.5349 2.3299 12.4801 2.46217 12.4801 2.60008V4.16008H6.24008V2.60008C6.24008 2.46217 6.18529 2.3299 6.08777 2.23238C5.99025 2.13486 5.85799 2.08008 5.72008 2.08008C5.58217 2.08008 5.4499 2.13486 5.35238 2.23238C5.25486 2.3299 5.20008 2.46217 5.20008 2.60008V4.16008H3.64008C3.22634 4.16008 2.82955 4.32443 2.53699 4.61699C2.24443 4.90955 2.08008 5.30634 2.08008 5.72008V22.3601C2.08008 22.7738 2.24443 23.1706 2.53699 23.4632C2.82955 23.7557 3.22634 23.9201 3.64008 23.9201H22.3601C22.7738 23.9201 23.1706 23.7557 23.4632 23.4632C23.7557 23.1706 23.9201 22.7738 23.9201 22.3601V5.72008C23.9201 5.30634 23.7557 4.90955 23.4632 4.61699C23.1706 4.32443 22.7738 4.16008 22.3601 4.16008ZM3.64008 5.20008H5.20008V5.72008C5.20008 5.85799 5.25486 5.99025 5.35238 6.08777C5.4499 6.18529 5.58217 6.24008 5.72008 6.24008C5.85799 6.24008 5.99025 6.18529 6.08777 6.08777C6.18529 5.99025 6.24008 5.85799 6.24008 5.72008V5.20008H12.4801V5.72008C12.4801 5.85799 12.5349 5.99025 12.6324 6.08777C12.7299 6.18529 12.8622 6.24008 13.0001 6.24008C13.138 6.24008 13.2703 6.18529 13.3678 6.08777C13.4653 5.99025 13.5201 5.85799 13.5201 5.72008V5.20008H19.7601V5.72008C19.7601 5.85799 19.8149 5.99025 19.9124 6.08777C20.0099 6.18529 20.1422 6.24008 20.2801 6.24008C20.418 6.24008 20.5503 6.18529 20.6478 6.08777C20.7453 5.99025 20.8001 5.85799 20.8001 5.72008V5.20008H22.3601C22.498 5.20008 22.6303 5.25486 22.7278 5.35238C22.8253 5.4499 22.8801 5.58217 22.8801 5.72008V8.32008H3.12008V5.72008C3.12008 5.58217 3.17486 5.4499 3.27238 5.35238C3.3699 5.25486 3.50217 5.20008 3.64008 5.20008ZM22.3601 22.8801H3.64008C3.50217 22.8801 3.3699 22.8253 3.27238 22.7278C3.17486 22.6303 3.12008 22.498 3.12008 22.3601V9.36008H22.8801V22.3601C22.8801 22.498 22.8253 22.6303 22.7278 22.7278C22.6303 22.8253 22.498 22.8801 22.3601 22.8801ZM17.6801 16.1201C17.6801 16.258 17.6253 16.3903 17.5278 16.4878C17.4303 16.5853 17.298 16.6401 17.1601 16.6401H13.5201V20.2801C13.5201 20.418 13.4653 20.5503 13.3678 20.6478C13.2703 20.7453 13.138 20.8001 13.0001 20.8001C12.8622 20.8001 12.7299 20.7453 12.6324 20.6478C12.5349 20.5503 12.4801 20.418 12.4801 20.2801V16.6401H8.84008C8.70217 16.6401 8.5699 16.5853 8.47238 16.4878C8.37486 16.3903 8.32008 16.258 8.32008 16.1201C8.32008 15.9822 8.37486 15.8499 8.47238 15.7524C8.5699 15.6549 8.70217 15.6001 8.84008 15.6001H12.4801V11.9601C12.4801 11.8222 12.5349 11.6899 12.6324 11.5924C12.7299 11.4949 12.8622 11.4401 13.0001 11.4401C13.138 11.4401 13.2703 11.4949 13.3678 11.5924C13.4653 11.6899 13.5201 11.8222 13.5201 11.9601V15.6001H17.1601C17.298 15.6001 17.4303 15.6549 17.5278 15.7524C17.6253 15.8499 17.6801 15.9822 17.6801 16.1201Z" fill="#D6002A"/>
</svg>
