<svg width="33" height="24" viewBox="0 0 33 24" fill="none" xmlns="http://www.w3.org/2000/svg">
<rect width="33" height="24" fill="#E5E5E5"/>
<rect width="949" height="719" transform="translate(-51 -96)" fill="white"/>
<mask id="path-1-outside-1_0_1" maskUnits="userSpaceOnUse" x="3.08789" y="4.37549" width="30" height="20" fill="black">
<rect fill="white" x="3.08789" y="4.37549" width="30" height="20"/>
<path d="M6.94861 23.7178C6.73827 23.7178 6.56999 23.5495 6.52792 23.3392L4.08789 5.83826C4.08789 5.71205 4.08789 5.58584 4.17203 5.5017C4.25617 5.41757 4.38238 5.37549 4.50859 5.37549H29.9186C30.1289 5.37549 30.2972 5.54376 30.3393 5.75411L32.1903 23.213C32.1903 23.3392 32.1483 23.4654 32.0641 23.5495C31.98 23.6337 31.8538 23.6757 31.7696 23.6757L6.94861 23.7178ZM4.97135 6.21688L7.32724 22.8764L31.3069 22.8343L29.54 6.21688H4.97135Z"/>
</mask>
<path d="M6.94861 23.7178C6.73827 23.7178 6.56999 23.5495 6.52792 23.3392L4.08789 5.83826C4.08789 5.71205 4.08789 5.58584 4.17203 5.5017C4.25617 5.41757 4.38238 5.37549 4.50859 5.37549H29.9186C30.1289 5.37549 30.2972 5.54376 30.3393 5.75411L32.1903 23.213C32.1903 23.3392 32.1483 23.4654 32.0641 23.5495C31.98 23.6337 31.8538 23.6757 31.7696 23.6757L6.94861 23.7178ZM4.97135 6.21688L7.32724 22.8764L31.3069 22.8343L29.54 6.21688H4.97135Z" fill="#375889"/>
<path d="M6.94861 23.7178C6.73827 23.7178 6.56999 23.5495 6.52792 23.3392L4.08789 5.83826C4.08789 5.71205 4.08789 5.58584 4.17203 5.5017C4.25617 5.41757 4.38238 5.37549 4.50859 5.37549H29.9186C30.1289 5.37549 30.2972 5.54376 30.3393 5.75411L32.1903 23.213C32.1903 23.3392 32.1483 23.4654 32.0641 23.5495C31.98 23.6337 31.8538 23.6757 31.7696 23.6757L6.94861 23.7178ZM4.97135 6.21688L7.32724 22.8764L31.3069 22.8343L29.54 6.21688H4.97135Z" stroke="#375889" stroke-width="0.5" mask="url(#path-1-outside-1_0_1)"/>
<mask id="path-2-outside-2_0_1" maskUnits="userSpaceOnUse" x="2.41406" y="0" width="29" height="7" fill="black">
<rect fill="white" x="2.41406" width="29" height="7"/>
<path d="M29.8758 6.21662H4.4658C4.25545 6.21662 4.08717 6.04834 4.04511 5.838L3.41406 1.46277C3.41406 1.33656 3.41406 1.21034 3.4982 1.1262C3.58234 1.04206 3.70855 1 3.83476 1H29.371C29.5813 1 29.7496 1.16828 29.7916 1.37862L30.2544 5.75385C30.2544 5.88006 30.2123 6.00628 30.1703 6.09042C30.1282 6.17455 30.002 6.21662 29.8758 6.21662ZM4.84442 5.37523H29.413L29.0344 1.84139H4.33959L4.84442 5.37523Z"/>
</mask>
<path d="M29.8758 6.21662H4.4658C4.25545 6.21662 4.08717 6.04834 4.04511 5.838L3.41406 1.46277C3.41406 1.33656 3.41406 1.21034 3.4982 1.1262C3.58234 1.04206 3.70855 1 3.83476 1H29.371C29.5813 1 29.7496 1.16828 29.7916 1.37862L30.2544 5.75385C30.2544 5.88006 30.2123 6.00628 30.1703 6.09042C30.1282 6.17455 30.002 6.21662 29.8758 6.21662ZM4.84442 5.37523H29.413L29.0344 1.84139H4.33959L4.84442 5.37523Z" fill="#375889"/>
<path d="M29.8758 6.21662H4.4658C4.25545 6.21662 4.08717 6.04834 4.04511 5.838L3.41406 1.46277C3.41406 1.33656 3.41406 1.21034 3.4982 1.1262C3.58234 1.04206 3.70855 1 3.83476 1H29.371C29.5813 1 29.7496 1.16828 29.7916 1.37862L30.2544 5.75385C30.2544 5.88006 30.2123 6.00628 30.1703 6.09042C30.1282 6.17455 30.002 6.21662 29.8758 6.21662ZM4.84442 5.37523H29.413L29.0344 1.84139H4.33959L4.84442 5.37523Z" stroke="#375889" stroke-width="0.5" mask="url(#path-2-outside-2_0_1)"/>
<mask id="path-3-outside-3_0_1" maskUnits="userSpaceOnUse" x="12.8477" y="7.27783" width="9" height="3" fill="black">
<rect fill="white" x="12.8477" y="7.27783" width="9" height="3"/>
<path d="M20.7891 9.11922H14.2684C14.0159 9.11922 13.8477 8.95094 13.8477 8.69853C13.8477 8.44611 14.0159 8.27783 14.2684 8.27783H20.7891C21.0415 8.27783 21.2098 8.44611 21.2098 8.69853C21.2098 8.95094 21.0415 9.11922 20.7891 9.11922Z"/>
</mask>
<path d="M20.7891 9.11922H14.2684C14.0159 9.11922 13.8477 8.95094 13.8477 8.69853C13.8477 8.44611 14.0159 8.27783 14.2684 8.27783H20.7891C21.0415 8.27783 21.2098 8.44611 21.2098 8.69853C21.2098 8.95094 21.0415 9.11922 20.7891 9.11922Z" fill="#375889"/>
<path d="M20.7891 9.11922H14.2684C14.0159 9.11922 13.8477 8.95094 13.8477 8.69853C13.8477 8.44611 14.0159 8.27783 14.2684 8.27783H20.7891C21.0415 8.27783 21.2098 8.44611 21.2098 8.69853C21.2098 8.95094 21.0415 9.11922 20.7891 9.11922Z" stroke="#375889" stroke-width="0.5" mask="url(#path-3-outside-3_0_1)"/>
<mask id="path-4-outside-4_0_1" maskUnits="userSpaceOnUse" x="12.7637" y="10.2227" width="6" height="5" fill="black">
<rect fill="white" x="12.7637" y="10.2227" width="6" height="5"/>
<path d="M17.4237 14.9669H14.563C14.3526 14.9669 14.1844 14.7986 14.1423 14.5882L13.7637 11.6854C13.7637 11.5592 13.8057 11.433 13.8478 11.3489C13.9319 11.2647 14.0582 11.2227 14.1844 11.2227H17.0872C17.2975 11.2227 17.4658 11.3909 17.5079 11.6013L17.8865 14.5041C17.8865 14.6303 17.8444 14.7565 17.8023 14.8406C17.6761 14.9248 17.5499 14.9669 17.4237 14.9669ZM14.9416 14.1255H16.961L16.7085 12.064H14.6892L14.9416 14.1255Z"/>
</mask>
<path d="M17.4237 14.9669H14.563C14.3526 14.9669 14.1844 14.7986 14.1423 14.5882L13.7637 11.6854C13.7637 11.5592 13.8057 11.433 13.8478 11.3489C13.9319 11.2647 14.0582 11.2227 14.1844 11.2227H17.0872C17.2975 11.2227 17.4658 11.3909 17.5079 11.6013L17.8865 14.5041C17.8865 14.6303 17.8444 14.7565 17.8023 14.8406C17.6761 14.9248 17.5499 14.9669 17.4237 14.9669ZM14.9416 14.1255H16.961L16.7085 12.064H14.6892L14.9416 14.1255Z" fill="#375889"/>
<path d="M17.4237 14.9669H14.563C14.3526 14.9669 14.1844 14.7986 14.1423 14.5882L13.7637 11.6854C13.7637 11.5592 13.8057 11.433 13.8478 11.3489C13.9319 11.2647 14.0582 11.2227 14.1844 11.2227H17.0872C17.2975 11.2227 17.4658 11.3909 17.5079 11.6013L17.8865 14.5041C17.8865 14.6303 17.8444 14.7565 17.8023 14.8406C17.6761 14.9248 17.5499 14.9669 17.4237 14.9669ZM14.9416 14.1255H16.961L16.7085 12.064H14.6892L14.9416 14.1255Z" stroke="#375889" stroke-width="0.5" mask="url(#path-4-outside-4_0_1)"/>
<mask id="path-5-outside-5_0_1" maskUnits="userSpaceOnUse" x="18.0225" y="10.2227" width="6" height="5" fill="black">
<rect fill="white" x="18.0225" y="10.2227" width="6" height="5"/>
<path d="M22.6825 14.9669H19.8218C19.6114 14.9669 19.4432 14.7986 19.4011 14.5882L19.0225 11.6854C19.0225 11.5592 19.0645 11.433 19.1066 11.3489C19.1907 11.2647 19.3169 11.2227 19.4011 11.2227H22.3039C22.5142 11.2227 22.6825 11.3909 22.7246 11.6013L23.0611 14.5041C23.0611 14.6303 23.0191 14.7565 22.977 14.8406C22.9349 14.9248 22.8087 14.9669 22.6825 14.9669ZM20.2004 14.1255H22.2197L21.9673 12.064H19.948L20.2004 14.1255Z"/>
</mask>
<path d="M22.6825 14.9669H19.8218C19.6114 14.9669 19.4432 14.7986 19.4011 14.5882L19.0225 11.6854C19.0225 11.5592 19.0645 11.433 19.1066 11.3489C19.1907 11.2647 19.3169 11.2227 19.4011 11.2227H22.3039C22.5142 11.2227 22.6825 11.3909 22.7246 11.6013L23.0611 14.5041C23.0611 14.6303 23.0191 14.7565 22.977 14.8406C22.9349 14.9248 22.8087 14.9669 22.6825 14.9669ZM20.2004 14.1255H22.2197L21.9673 12.064H19.948L20.2004 14.1255Z" fill="#375889"/>
<path d="M22.6825 14.9669H19.8218C19.6114 14.9669 19.4432 14.7986 19.4011 14.5882L19.0225 11.6854C19.0225 11.5592 19.0645 11.433 19.1066 11.3489C19.1907 11.2647 19.3169 11.2227 19.4011 11.2227H22.3039C22.5142 11.2227 22.6825 11.3909 22.7246 11.6013L23.0611 14.5041C23.0611 14.6303 23.0191 14.7565 22.977 14.8406C22.9349 14.9248 22.8087 14.9669 22.6825 14.9669ZM20.2004 14.1255H22.2197L21.9673 12.064H19.948L20.2004 14.1255Z" stroke="#375889" stroke-width="0.5" mask="url(#path-5-outside-5_0_1)"/>
<mask id="path-6-outside-6_0_1" maskUnits="userSpaceOnUse" x="8.26172" y="15.9019" width="6" height="5" fill="black">
<rect fill="white" x="8.26172" y="15.9019" width="6" height="5"/>
<path d="M12.9218 20.6461H10.061C9.8507 20.6461 9.68242 20.4778 9.64035 20.2674L9.26172 17.3646C9.26172 17.2384 9.26172 17.1122 9.34586 17.0281C9.43 16.9439 9.55621 16.9019 9.68241 16.9019H12.5431C12.7535 16.9019 12.9218 17.0701 12.9638 17.2805L13.3425 20.1833C13.3425 20.3095 13.3425 20.4357 13.2583 20.5198C13.1742 20.604 13.048 20.6461 12.9218 20.6461ZM10.4397 19.8047H12.459L12.1645 17.7432H10.1452L10.4397 19.8047Z"/>
</mask>
<path d="M12.9218 20.6461H10.061C9.8507 20.6461 9.68242 20.4778 9.64035 20.2674L9.26172 17.3646C9.26172 17.2384 9.26172 17.1122 9.34586 17.0281C9.43 16.9439 9.55621 16.9019 9.68241 16.9019H12.5431C12.7535 16.9019 12.9218 17.0701 12.9638 17.2805L13.3425 20.1833C13.3425 20.3095 13.3425 20.4357 13.2583 20.5198C13.1742 20.604 13.048 20.6461 12.9218 20.6461ZM10.4397 19.8047H12.459L12.1645 17.7432H10.1452L10.4397 19.8047Z" fill="#375889"/>
<path d="M12.9218 20.6461H10.061C9.8507 20.6461 9.68242 20.4778 9.64035 20.2674L9.26172 17.3646C9.26172 17.2384 9.26172 17.1122 9.34586 17.0281C9.43 16.9439 9.55621 16.9019 9.68241 16.9019H12.5431C12.7535 16.9019 12.9218 17.0701 12.9638 17.2805L13.3425 20.1833C13.3425 20.3095 13.3425 20.4357 13.2583 20.5198C13.1742 20.604 13.048 20.6461 12.9218 20.6461ZM10.4397 19.8047H12.459L12.1645 17.7432H10.1452L10.4397 19.8047Z" stroke="#375889" stroke-width="0.5" mask="url(#path-6-outside-6_0_1)"/>
<mask id="path-7-outside-7_0_1" maskUnits="userSpaceOnUse" x="23.3232" y="10.2227" width="6" height="5" fill="black">
<rect fill="white" x="23.3232" y="10.2227" width="6" height="5"/>
<path d="M27.9833 14.9669H25.0805C24.8701 14.9669 24.7019 14.7986 24.6598 14.5882L24.3232 11.6854C24.3232 11.5592 24.3653 11.433 24.4074 11.3489C24.4915 11.2647 24.6177 11.2227 24.7019 11.2227H27.6047C27.815 11.2227 27.9833 11.3909 28.0254 11.6013L28.3619 14.5041C28.3619 14.6303 28.3198 14.7565 28.2778 14.8406C28.1936 14.9248 28.1095 14.9669 27.9833 14.9669ZM25.4591 14.1255H27.4785L27.226 12.064H25.2067L25.4591 14.1255Z"/>
</mask>
<path d="M27.9833 14.9669H25.0805C24.8701 14.9669 24.7019 14.7986 24.6598 14.5882L24.3232 11.6854C24.3232 11.5592 24.3653 11.433 24.4074 11.3489C24.4915 11.2647 24.6177 11.2227 24.7019 11.2227H27.6047C27.815 11.2227 27.9833 11.3909 28.0254 11.6013L28.3619 14.5041C28.3619 14.6303 28.3198 14.7565 28.2778 14.8406C28.1936 14.9248 28.1095 14.9669 27.9833 14.9669ZM25.4591 14.1255H27.4785L27.226 12.064H25.2067L25.4591 14.1255Z" fill="#375889"/>
<path d="M27.9833 14.9669H25.0805C24.8701 14.9669 24.7019 14.7986 24.6598 14.5882L24.3232 11.6854C24.3232 11.5592 24.3653 11.433 24.4074 11.3489C24.4915 11.2647 24.6177 11.2227 24.7019 11.2227H27.6047C27.815 11.2227 27.9833 11.3909 28.0254 11.6013L28.3619 14.5041C28.3619 14.6303 28.3198 14.7565 28.2778 14.8406C28.1936 14.9248 28.1095 14.9669 27.9833 14.9669ZM25.4591 14.1255H27.4785L27.226 12.064H25.2067L25.4591 14.1255Z" stroke="#375889" stroke-width="0.5" mask="url(#path-7-outside-7_0_1)"/>
<mask id="path-8-outside-8_0_1" maskUnits="userSpaceOnUse" x="13.4785" y="15.9019" width="6" height="5" fill="black">
<rect fill="white" x="13.4785" y="15.9019" width="6" height="5"/>
<path d="M18.1386 20.6461H15.2778C15.0675 20.6461 14.8992 20.4778 14.8571 20.2674L14.4785 17.3646C14.4785 17.2384 14.5206 17.1122 14.5627 17.0281C14.6468 16.9439 14.773 16.9019 14.8992 16.9019H17.7599C17.9703 16.9019 18.1386 17.0701 18.1806 17.2805L18.5593 20.1833C18.5593 20.3095 18.5172 20.4357 18.4751 20.5198C18.391 20.604 18.2648 20.6461 18.1386 20.6461ZM15.6565 19.8047H17.6758L17.4234 17.7432H15.404L15.6565 19.8047Z"/>
</mask>
<path d="M18.1386 20.6461H15.2778C15.0675 20.6461 14.8992 20.4778 14.8571 20.2674L14.4785 17.3646C14.4785 17.2384 14.5206 17.1122 14.5627 17.0281C14.6468 16.9439 14.773 16.9019 14.8992 16.9019H17.7599C17.9703 16.9019 18.1386 17.0701 18.1806 17.2805L18.5593 20.1833C18.5593 20.3095 18.5172 20.4357 18.4751 20.5198C18.391 20.604 18.2648 20.6461 18.1386 20.6461ZM15.6565 19.8047H17.6758L17.4234 17.7432H15.404L15.6565 19.8047Z" fill="#DF3219"/>
<path d="M18.1386 20.6461H15.2778C15.0675 20.6461 14.8992 20.4778 14.8571 20.2674L14.4785 17.3646C14.4785 17.2384 14.5206 17.1122 14.5627 17.0281C14.6468 16.9439 14.773 16.9019 14.8992 16.9019H17.7599C17.9703 16.9019 18.1386 17.0701 18.1806 17.2805L18.5593 20.1833C18.5593 20.3095 18.5172 20.4357 18.4751 20.5198C18.391 20.604 18.2648 20.6461 18.1386 20.6461ZM15.6565 19.8047H17.6758L17.4234 17.7432H15.404L15.6565 19.8047Z" stroke="#D6002A" stroke-width="0.5" mask="url(#path-8-outside-8_0_1)"/>
<mask id="path-9-outside-9_0_1" maskUnits="userSpaceOnUse" x="18.7373" y="15.9019" width="6" height="5" fill="black">
<rect fill="white" x="18.7373" y="15.9019" width="6" height="5"/>
<path d="M23.3974 20.6461H20.5366C20.3263 20.6461 20.158 20.4778 20.1159 20.2674L19.7373 17.3646C19.7373 17.2384 19.7794 17.1122 19.8214 17.0281C19.9056 16.9439 20.0318 16.9019 20.1159 16.9019H22.9767C23.187 16.9019 23.3553 17.0701 23.3974 17.2805L23.7339 20.1833C23.7339 20.3095 23.6918 20.4357 23.6498 20.5198C23.6077 20.604 23.4815 20.6461 23.3974 20.6461ZM20.9153 19.8047H22.9346L22.6822 17.7432H20.6628L20.9153 19.8047Z"/>
</mask>
<path d="M23.3974 20.6461H20.5366C20.3263 20.6461 20.158 20.4778 20.1159 20.2674L19.7373 17.3646C19.7373 17.2384 19.7794 17.1122 19.8214 17.0281C19.9056 16.9439 20.0318 16.9019 20.1159 16.9019H22.9767C23.187 16.9019 23.3553 17.0701 23.3974 17.2805L23.7339 20.1833C23.7339 20.3095 23.6918 20.4357 23.6498 20.5198C23.6077 20.604 23.4815 20.6461 23.3974 20.6461ZM20.9153 19.8047H22.9346L22.6822 17.7432H20.6628L20.9153 19.8047Z" fill="#375889"/>
<path d="M23.3974 20.6461H20.5366C20.3263 20.6461 20.158 20.4778 20.1159 20.2674L19.7373 17.3646C19.7373 17.2384 19.7794 17.1122 19.8214 17.0281C19.9056 16.9439 20.0318 16.9019 20.1159 16.9019H22.9767C23.187 16.9019 23.3553 17.0701 23.3974 17.2805L23.7339 20.1833C23.7339 20.3095 23.6918 20.4357 23.6498 20.5198C23.6077 20.604 23.4815 20.6461 23.3974 20.6461ZM20.9153 19.8047H22.9346L22.6822 17.7432H20.6628L20.9153 19.8047Z" stroke="#375889" stroke-width="0.5" mask="url(#path-9-outside-9_0_1)"/>
<mask id="path-10-outside-10_0_1" maskUnits="userSpaceOnUse" x="23.9541" y="15.9019" width="6" height="5" fill="black">
<rect fill="white" x="23.9541" y="15.9019" width="6" height="5"/>
<path d="M28.6141 20.6461H25.7534C25.5431 20.6461 25.3748 20.4778 25.3327 20.2674L24.9541 17.3646C24.9541 17.2384 24.9962 17.1122 25.0382 17.0281C25.1224 16.9439 25.2486 16.9019 25.3327 16.9019H28.1935C28.4038 16.9019 28.5721 17.0701 28.6141 17.2805L28.9507 20.1833C28.9507 20.3095 28.9086 20.4357 28.8666 20.5198C28.8666 20.604 28.7404 20.6461 28.6141 20.6461ZM26.132 19.8047H28.1514L27.899 17.7432H25.8796L26.132 19.8047Z"/>
</mask>
<path d="M28.6141 20.6461H25.7534C25.5431 20.6461 25.3748 20.4778 25.3327 20.2674L24.9541 17.3646C24.9541 17.2384 24.9962 17.1122 25.0382 17.0281C25.1224 16.9439 25.2486 16.9019 25.3327 16.9019H28.1935C28.4038 16.9019 28.5721 17.0701 28.6141 17.2805L28.9507 20.1833C28.9507 20.3095 28.9086 20.4357 28.8666 20.5198C28.8666 20.604 28.7404 20.6461 28.6141 20.6461ZM26.132 19.8047H28.1514L27.899 17.7432H25.8796L26.132 19.8047Z" fill="#375889"/>
<path d="M28.6141 20.6461H25.7534C25.5431 20.6461 25.3748 20.4778 25.3327 20.2674L24.9541 17.3646C24.9541 17.2384 24.9962 17.1122 25.0382 17.0281C25.1224 16.9439 25.2486 16.9019 25.3327 16.9019H28.1935C28.4038 16.9019 28.5721 17.0701 28.6141 17.2805L28.9507 20.1833C28.9507 20.3095 28.9086 20.4357 28.8666 20.5198C28.8666 20.604 28.7404 20.6461 28.6141 20.6461ZM26.132 19.8047H28.1514L27.899 17.7432H25.8796L26.132 19.8047Z" stroke="#375889" stroke-width="0.5" mask="url(#path-10-outside-10_0_1)"/>
<mask id="path-11-outside-11_0_1" maskUnits="userSpaceOnUse" x="0" y="0.462402" width="6" height="24" fill="black">
<rect fill="white" y="0.462402" width="6" height="24"/>
<path d="M5.09725 23.7172H1.39513C1.26892 23.7172 1.14271 23.6751 1.10064 23.591C1.0165 23.5068 0.974435 23.3806 1.0165 23.2544L3.37239 1.4624L4.21378 1.54653L1.89996 22.8758H5.09725V23.7172Z"/>
</mask>
<path d="M5.09725 23.7172H1.39513C1.26892 23.7172 1.14271 23.6751 1.10064 23.591C1.0165 23.5068 0.974435 23.3806 1.0165 23.2544L3.37239 1.4624L4.21378 1.54653L1.89996 22.8758H5.09725V23.7172Z" fill="#375889"/>
<path d="M5.09725 23.7172H1.39513C1.26892 23.7172 1.14271 23.6751 1.10064 23.591C1.0165 23.5068 0.974435 23.3806 1.0165 23.2544L3.37239 1.4624L4.21378 1.54653L1.89996 22.8758H5.09725V23.7172Z" stroke="#375889" stroke-width="0.5" mask="url(#path-11-outside-11_0_1)"/>
</svg>
